<svg xmlns="http://www.w3.org/2000/svg" xmlns:xlink="http://www.w3.org/1999/xlink" xmlns:inkscape="http://www.inkscape.org/namespaces/inkscape" version="1.1" width="800" height="800" viewBox="120 110 335.55 266">
<defs>
<clipPath id="clip_1">
<path transform="matrix(1,0,0,-1,0,486)" d="M0 486H575.55V0H0Z"/>
</clipPath>
</defs>
<g inkscape:groupmode="layer" inkscape:label="Layer 1">
<g clip-path="url(#clip_1)">
<path transform="matrix(1,0,0,-1,398.4992,128.7002)" d="M0 0C5.475-7.064 11.654-13.524 16.052-21.028 25.019-36.33 25.454-53.01 20.999-69.825 13.779-97.069-3.504-116.459-27.375-130.464-47.669-142.37-69.682-149.55-92.922-152.371-117.375-155.34-141.977-157.056-166.451-159.856-178.614-161.248-190.638-163.845-202.981-165.939-196.521-162.687-190.207-159.306-183.727-156.279-155.167-142.942-126.158-130.494-98.088-116.201-72.772-103.311-48.698-88.094-28.469-67.667-15.954-55.028-5.583-40.987-2.245-23.043-.895-15.79-.769-8.309 0 0" fill="#cc3323"/>
<path transform="matrix(1,0,0,-1,278.9323,291.7598)" d="M0 0C7.932 1.09 15.883 2.057 23.792 3.293 52.079 7.717 79.302 15.383 102.997 32.143 128.66 50.295 145.874 74.018 148.953 106.303 149.204 108.933 149.092 111.624 148.885 114.265 148.689 116.771 148.147 119.251 148.445 122.104 151.208 116.804 154.363 111.667 156.667 106.173 165.615 84.843 167.438 62.863 160.492 40.704 151.568 12.234 130.982-3.421 102.535-9.454 81.499-13.916 60.507-11.995 39.599-7.983 27.752-5.71 15.864-3.655 3.997-1.488 2.624-1.237 1.266-.896-.099-.598-.066-.398-.033-.199 0 0" fill="#cc3323"/>
<path transform="matrix(1,0,0,-1,128.8269,334.3037)" d="M0 0C2.978 12.107 7.427 22.863 13.292 33.081 30.179 62.503 56.232 79.726 87.908 89.722 111.451 97.151 135.582 99.788 160.129 99.348 165.614 99.249 171.087 98.534 176.74 97.374 164.104 91.133 151.581 84.649 138.807 78.704 116.367 68.26 93.519 58.665 71.313 47.755 46.173 35.403 22.927 19.947 1.861 1.361 1.505 1.047 1.094 .796 0 0" fill="#cc3323"/>
<path transform="matrix(1,0,0,-1,123.2932,354.5625)" d="M0 0C-.498 .521 13.47 18.75 35.833 32.834 45.24 38.758 53.244 41.994 61.5 45.334 69.332 48.501 82.28 53.651 100.167 56.667 104.768 57.442 116.391 59.206 131.5 59 144.426 58.824 154.113 57.286 165.083 55.5 180.441 53 181.08 51.79 196.917 49.167 210.318 46.947 218.192 45.644 229.417 45.5 241.466 45.347 253.507 45.193 267.75 50.167 273.874 52.305 278.38 54.685 278.833 53.917 279.605 52.609 267.638 43.846 257.667 37.667 243.099 28.64 230.755 23.868 227.917 22.792 220.106 19.83 193.888 10.574 159.75 11.834 147.682 12.278 135.681 13.999 120.602 16.16 111.779 17.425 103.447 18.821 89.667 20.292 74.708 21.888 69.17 21.881 65.286 21.751 54.338 21.386 45.74 19.689 40.999 18.592 32.047 16.521 25.259 13.909 21.667 12.417 16.646 10.332 11.162 8.017 4.792 3.542 1.441 1.188 .143-.149 0 0" fill="#f2c38b"/>
<path transform="matrix(1,0,0,-1,142.0852,335.01173)" d="M0 0C-.002 .003 7.492 7.028 17.042 13.283 25.987 19.142 33.333 21.991 42.708 25.783 50.54 28.95 63.488 34.101 81.375 37.116 85.976 37.892 97.599 39.655 112.708 39.449 125.634 39.273 135.321 37.735 146.291 35.949 161.649 33.449 162.288 32.239 178.125 29.616 191.526 27.396 199.4 26.093 210.625 25.949 222.629 25.797 234.784 25.702 248.958 30.616 253.664 32.247 261.97 35.605 262.241 35.002 262.343 34.774 261.247 34.119 259.25 32.75 257.369 31.46 258.068 31.854 251.477 26.905 245.839 22.672 240.722 18.927 240.311 18.627 233.052 13.327 219.528 6.497 209.125 3.241 194.744-1.259 181.332 .429 155.111 4.111 136.526 6.722 136.387 8.141 106.542 12.792 96.368 14.377 84.893 15.855 70.375 16.125 59.063 16.335 51.384 15.678 47.813 15.32 40.411 14.58 35.525 13.615 25.875 11.708 22.502 11.042 19.307 10.356 15.324 8.898 10.049 6.967 6.651 4.873 5.407 4.074 2.101 1.953 .001-.001 0 0" fill="#e2a56e"/>
</g>
</g>
</svg>
